<svg width="184" height="86" viewBox="0 0 184 86" fill="none" xmlns="http://www.w3.org/2000/svg">
<rect x="1.69273" y="1.69273" width="180.212" height="81.7989" stroke="#006ECE" stroke-width="3.38547"/>
<path d="M38.016 32.8207V35.935H22.3846V32.8207H38.016ZM22.9797 20.4029V49.2852H19.1512V20.4029H22.9797ZM41.3485 20.4029V49.2852H37.5399V20.4029H41.3485ZM52.9887 20.4029L60.487 34.9035L68.0051 20.4029H72.3494L62.3913 38.494V49.2852H58.5629V38.494L48.6048 20.4029H52.9887ZM96.9628 40.1007H100.771C100.573 41.9257 100.051 43.559 99.2044 45.0004C98.358 46.4419 97.1612 47.5858 95.6139 48.4322C94.0666 49.2653 92.1359 49.6819 89.8216 49.6819C88.1288 49.6819 86.5882 49.3645 85.1996 48.7297C83.8243 48.095 82.6407 47.1957 81.6488 46.0319C80.657 44.855 79.89 43.4465 79.3478 41.8067C78.8188 40.1536 78.5543 38.3154 78.5543 36.2921V33.4158C78.5543 31.3924 78.8188 29.5608 79.3478 27.921C79.89 26.2679 80.6636 24.8529 81.6687 23.6759C82.687 22.499 83.9102 21.5931 85.3385 20.9583C86.7667 20.3235 88.3735 20.0061 90.1588 20.0061C92.3408 20.0061 94.1857 20.4161 95.6933 21.236C97.2008 22.0559 98.3712 23.1932 99.2044 24.6479C100.051 26.0894 100.573 27.7623 100.771 29.6666H96.9628C96.7777 28.3177 96.4338 27.1606 95.9313 26.1952C95.4288 25.2166 94.7146 24.4628 93.7889 23.9338C92.8632 23.4048 91.6532 23.1403 90.1588 23.1403C88.876 23.1403 87.7453 23.385 86.7667 23.8743C85.8013 24.3636 84.988 25.0579 84.3268 25.9572C83.6788 26.8564 83.1895 27.9342 82.8589 29.1905C82.5283 30.4469 82.363 31.8421 82.363 33.3761V36.2921C82.363 37.7071 82.5084 39.0362 82.7994 40.2793C83.1035 41.5224 83.5598 42.6134 84.1681 43.5523C84.7764 44.4913 85.5501 45.2319 86.489 45.7741C87.4279 46.303 88.5388 46.5675 89.8216 46.5675C91.4482 46.5675 92.7442 46.3096 93.7096 45.7939C94.675 45.2781 95.4023 44.5376 95.8916 43.5722C96.3942 42.6068 96.7512 41.4496 96.9628 40.1007ZM132.288 33.9315V35.7565C132.288 37.9253 132.017 39.8693 131.475 41.5885C130.933 43.3077 130.152 44.769 129.134 45.9724C128.116 47.1759 126.892 48.095 125.464 48.7297C124.049 49.3645 122.462 49.6819 120.703 49.6819C118.997 49.6819 117.43 49.3645 116.002 48.7297C114.587 48.095 113.357 47.1759 112.312 45.9724C111.281 44.769 110.481 43.3077 109.912 41.5885C109.344 39.8693 109.059 37.9253 109.059 35.7565V33.9315C109.059 31.7627 109.337 29.8253 109.892 28.1194C110.461 26.4002 111.261 24.9389 112.293 23.7354C113.324 22.5188 114.547 21.5931 115.962 20.9583C117.391 20.3235 118.958 20.0061 120.664 20.0061C122.423 20.0061 124.01 20.3235 125.425 20.9583C126.853 21.5931 128.076 22.5188 129.094 23.7354C130.126 24.9389 130.913 26.4002 131.455 28.1194C132.01 29.8253 132.288 31.7627 132.288 33.9315ZM128.499 35.7565V33.8919C128.499 32.1727 128.321 30.6519 127.964 29.3294C127.62 28.007 127.111 26.8961 126.436 25.9968C125.762 25.0976 124.935 24.4165 123.957 23.9536C122.991 23.4908 121.894 23.2594 120.664 23.2594C119.474 23.2594 118.396 23.4908 117.43 23.9536C116.478 24.4165 115.658 25.0976 114.971 25.9968C114.296 26.8961 113.774 28.007 113.403 29.3294C113.033 30.6519 112.848 32.1727 112.848 33.8919V35.7565C112.848 37.4889 113.033 39.023 113.403 40.3586C113.774 41.6811 114.303 42.7985 114.99 43.711C115.691 44.6103 116.518 45.2914 117.47 45.7542C118.435 46.2171 119.513 46.4485 120.703 46.4485C121.947 46.4485 123.051 46.2171 124.016 45.7542C124.982 45.2914 125.795 44.6103 126.456 43.711C127.131 42.7985 127.64 41.6811 127.983 40.3586C128.327 39.023 128.499 37.4889 128.499 35.7565ZM164.301 20.4029V49.2852H160.452L145.912 27.0085V49.2852H142.083V20.4029H145.912L160.512 42.739V20.4029H164.301Z" fill="#006ECE"/>
<path d="M55.7895 68.9942C55.5909 68.9942 55.4374 68.94 55.3291 68.8317C55.2207 68.7234 55.1666 68.5654 55.1666 68.3577V63.2525H54.354C54.1915 63.2525 54.0652 63.2118 53.9749 63.1306C53.8846 63.0403 53.8395 62.9229 53.8395 62.7785C53.8395 62.625 53.8846 62.5076 53.9749 62.4264C54.0652 62.3451 54.1915 62.3045 54.354 62.3045H55.5051L55.1666 62.6295V62.1285C55.1666 61.2528 55.3787 60.5892 55.803 60.1378C56.2364 59.6774 56.8683 59.4111 57.6989 59.3388L58.1187 59.3118C58.2541 59.2937 58.3624 59.3163 58.4437 59.3795C58.5249 59.4336 58.5791 59.5059 58.6062 59.5961C58.6333 59.6864 58.6333 59.7812 58.6062 59.8805C58.5881 59.9708 58.5475 60.0521 58.4843 60.1243C58.4211 60.1965 58.3399 60.2371 58.2406 60.2462L57.9426 60.2597C57.401 60.3048 57.0083 60.4673 56.7645 60.7472C56.5207 61.018 56.3989 61.4243 56.3989 61.966V62.5076L56.2228 62.3045H57.7801C57.9517 62.3045 58.0826 62.3451 58.1729 62.4264C58.2631 62.5076 58.3083 62.625 58.3083 62.7785C58.3083 62.9229 58.2631 63.0403 58.1729 63.1306C58.0826 63.2118 57.9517 63.2525 57.7801 63.2525H56.3989V68.3577C56.3989 68.7821 56.1957 68.9942 55.7895 68.9942ZM63.1 69.0213C62.5673 69.0213 62.1205 68.922 61.7593 68.7234C61.4072 68.5248 61.1454 68.2313 60.9739 67.8431C60.8024 67.4549 60.7166 66.9674 60.7166 66.3806V62.8327C60.7166 62.625 60.7663 62.4715 60.8656 62.3722C60.9739 62.2639 61.1274 62.2097 61.326 62.2097C61.5246 62.2097 61.6781 62.2639 61.7864 62.3722C61.8948 62.4715 61.9489 62.625 61.9489 62.8327V66.3806C61.9489 66.9404 62.0618 67.3556 62.2875 67.6265C62.5132 67.8883 62.8698 68.0192 63.3573 68.0192C63.899 68.0192 64.3368 67.8386 64.6708 67.4775C65.0139 67.1164 65.1854 66.6379 65.1854 66.0421V62.8327C65.1854 62.625 65.2351 62.4715 65.3344 62.3722C65.4427 62.2639 65.5962 62.2097 65.7948 62.2097C65.9934 62.2097 66.1469 62.2639 66.2552 62.3722C66.3636 62.4715 66.4177 62.625 66.4177 62.8327V68.3577C66.4177 68.7821 66.2191 68.9942 65.8219 68.9942C65.6233 68.9942 65.4698 68.94 65.3615 68.8317C65.2622 68.7234 65.2125 68.5654 65.2125 68.3577V67.1796L65.3886 67.4098C65.208 67.9334 64.9146 68.3352 64.5083 68.615C64.1111 68.8859 63.6417 69.0213 63.1 69.0213ZM71.8268 69.0213C71.1497 69.0213 70.6351 68.8227 70.283 68.4254C69.9309 68.0192 69.7549 67.4369 69.7549 66.6785V59.8805C69.7549 59.6729 69.809 59.5194 69.9174 59.4201C70.0257 59.3118 70.1747 59.2576 70.3642 59.2576C70.5629 59.2576 70.7163 59.3118 70.8247 59.4201C70.933 59.5194 70.9872 59.6729 70.9872 59.8805V66.5838C70.9872 67.0532 71.082 67.4053 71.2716 67.64C71.4702 67.8657 71.75 67.9786 72.1111 67.9786C72.1924 67.9786 72.2646 67.9786 72.3278 67.9786C72.391 67.9695 72.4542 67.9605 72.5174 67.9515C72.6167 67.9425 72.6889 67.9695 72.7341 68.0327C72.7792 68.0959 72.8018 68.2223 72.8018 68.4119C72.8018 68.5834 72.7612 68.7189 72.6799 68.8182C72.6077 68.9084 72.4858 68.9671 72.3143 68.9942C72.233 69.0032 72.1518 69.0077 72.0705 69.0077C71.9893 69.0168 71.908 69.0213 71.8268 69.0213ZM77.2541 69.0213C76.577 69.0213 76.0624 68.8227 75.7103 68.4254C75.3582 68.0192 75.1822 67.4369 75.1822 66.6785V59.8805C75.1822 59.6729 75.2364 59.5194 75.3447 59.4201C75.453 59.3118 75.602 59.2576 75.7916 59.2576C75.9902 59.2576 76.1437 59.3118 76.252 59.4201C76.3603 59.5194 76.4145 59.6729 76.4145 59.8805V66.5838C76.4145 67.0532 76.5093 67.4053 76.6989 67.64C76.8975 67.8657 77.1774 67.9786 77.5385 67.9786C77.6197 67.9786 77.692 67.9786 77.7551 67.9786C77.8183 67.9695 77.8815 67.9605 77.9447 67.9515C78.044 67.9425 78.1163 67.9695 78.1614 68.0327C78.2065 68.0959 78.2291 68.2223 78.2291 68.4119C78.2291 68.5834 78.1885 68.7189 78.1072 68.8182C78.035 68.9084 77.9131 68.9671 77.7416 68.9942C77.6604 69.0032 77.5791 69.0077 77.4979 69.0077C77.4166 69.0168 77.3354 69.0213 77.2541 69.0213ZM81.5058 68.9942C81.3072 68.9942 81.1537 68.94 81.0454 68.8317C80.9371 68.7234 80.8829 68.5654 80.8829 68.3577V63.2525H80.0704C79.9079 63.2525 79.7815 63.2118 79.6912 63.1306C79.6009 63.0403 79.5558 62.9229 79.5558 62.7785C79.5558 62.625 79.6009 62.5076 79.6912 62.4264C79.7815 62.3451 79.9079 62.3045 80.0704 62.3045H81.2214L80.8829 62.6295V62.1285C80.8829 61.2618 81.0905 60.6028 81.5058 60.1514C81.9301 59.7 82.5576 59.4336 83.3881 59.3524L83.7809 59.3253C83.9343 59.3073 84.0562 59.3298 84.1465 59.393C84.2368 59.4472 84.2955 59.5194 84.3225 59.6097C84.3586 59.7 84.3632 59.7948 84.3361 59.8941C84.318 59.9934 84.2774 60.0791 84.2142 60.1514C84.151 60.2236 84.0698 60.2597 83.9704 60.2597L83.5913 60.2868C83.0767 60.3229 82.702 60.4809 82.4673 60.7607C82.2326 61.0406 82.1152 61.4424 82.1152 61.966V62.5076L81.9392 62.3045H85.6361C85.8347 62.3045 85.9837 62.3632 86.083 62.4806C86.1913 62.5889 86.2455 62.7514 86.2455 62.9681V68.3036C86.2455 68.5112 86.1958 68.6737 86.0965 68.7911C85.9972 68.9084 85.8437 68.9671 85.6361 68.9671C85.4375 68.9671 85.284 68.9084 85.1757 68.7911C85.0673 68.6737 85.0132 68.5112 85.0132 68.3036V63.2525H82.1152V68.3577C82.1152 68.7821 81.9121 68.9942 81.5058 68.9942ZM85.6496 60.7743C85.4149 60.7743 85.2298 60.7111 85.0944 60.5847C84.959 60.4493 84.8913 60.2732 84.8913 60.0566C84.8913 59.8218 84.959 59.6458 85.0944 59.5284C85.2298 59.402 85.4149 59.3388 85.6496 59.3388C85.9024 59.3388 86.092 59.402 86.2184 59.5284C86.3538 59.6458 86.4215 59.8218 86.4215 60.0566C86.4215 60.2732 86.3538 60.4493 86.2184 60.5847C86.092 60.7111 85.9024 60.7743 85.6496 60.7743ZM91.6529 69.0213C90.9758 69.0213 90.4612 68.8227 90.1092 68.4254C89.7571 68.0192 89.581 67.4369 89.581 66.6785V59.8805C89.581 59.6729 89.6352 59.5194 89.7435 59.4201C89.8519 59.3118 90.0008 59.2576 90.1904 59.2576C90.389 59.2576 90.5425 59.3118 90.6508 59.4201C90.7592 59.5194 90.8133 59.6729 90.8133 59.8805V66.5838C90.8133 67.0532 90.9081 67.4053 91.0977 67.64C91.2963 67.8657 91.5762 67.9786 91.9373 67.9786C92.0186 67.9786 92.0908 67.9786 92.154 67.9786C92.2172 67.9695 92.2804 67.9605 92.3436 67.9515C92.4429 67.9425 92.5151 67.9695 92.5602 68.0327C92.6054 68.0959 92.6279 68.2223 92.6279 68.4119C92.6279 68.5834 92.5873 68.7189 92.5061 68.8182C92.4338 68.9084 92.312 68.9671 92.1404 68.9942C92.0592 69.0032 91.9779 69.0077 91.8967 69.0077C91.8154 69.0168 91.7342 69.0213 91.6529 69.0213ZM95.6448 68.9942C95.4552 68.9942 95.3063 68.94 95.1979 68.8317C95.0896 68.7234 95.0354 68.5654 95.0354 68.3577V62.8327C95.0354 62.625 95.0896 62.4715 95.1979 62.3722C95.3063 62.2639 95.4552 62.2097 95.6448 62.2097C95.8344 62.2097 95.9788 62.2639 96.0782 62.3722C96.1865 62.4715 96.2407 62.625 96.2407 62.8327V63.9837L96.0917 63.74C96.2632 63.2434 96.5386 62.8597 96.9178 62.5889C97.306 62.3181 97.7664 62.1826 98.299 62.1826C98.8588 62.1826 99.3102 62.3181 99.6532 62.5889C99.9963 62.8507 100.226 63.2525 100.344 63.7941H100.154C100.317 63.2976 100.606 62.9049 101.021 62.616C101.445 62.3271 101.937 62.1826 102.497 62.1826C102.994 62.1826 103.4 62.2819 103.716 62.4806C104.041 62.6702 104.285 62.959 104.447 63.3472C104.61 63.7264 104.691 64.2139 104.691 64.8098V68.3577C104.691 68.5654 104.637 68.7234 104.528 68.8317C104.42 68.94 104.271 68.9942 104.081 68.9942C103.883 68.9942 103.729 68.94 103.621 68.8317C103.513 68.7234 103.458 68.5654 103.458 68.3577V64.8639C103.458 64.2861 103.359 63.8618 103.161 63.591C102.962 63.3202 102.628 63.1847 102.158 63.1847C101.644 63.1847 101.233 63.3653 100.926 63.7264C100.628 64.0785 100.479 64.566 100.479 65.1889V68.3577C100.479 68.5654 100.425 68.7234 100.317 68.8317C100.217 68.94 100.068 68.9942 99.8699 68.9942C99.6713 68.9942 99.5178 68.94 99.4095 68.8317C99.3011 68.7234 99.247 68.5654 99.247 68.3577V64.8639C99.247 64.2861 99.1476 63.8618 98.949 63.591C98.7504 63.3202 98.4164 63.1847 97.9469 63.1847C97.4323 63.1847 97.0216 63.3653 96.7146 63.7264C96.4167 64.0785 96.2677 64.566 96.2677 65.1889V68.3577C96.2677 68.7821 96.0601 68.9942 95.6448 68.9942ZM111.073 69.0213C110.36 69.0213 109.746 68.8859 109.232 68.615C108.726 68.3352 108.333 67.9425 108.054 67.4369C107.774 66.9223 107.634 66.3174 107.634 65.6223C107.634 64.9362 107.769 64.3358 108.04 63.8212C108.32 63.3066 108.699 62.9049 109.178 62.616C109.665 62.3271 110.22 62.1826 110.843 62.1826C111.286 62.1826 111.683 62.2594 112.035 62.4129C112.396 62.5573 112.703 62.7695 112.956 63.0493C113.209 63.3292 113.398 63.6722 113.525 64.0785C113.66 64.4757 113.728 64.9271 113.728 65.4327C113.728 65.5771 113.683 65.69 113.592 65.7712C113.511 65.8435 113.389 65.8796 113.227 65.8796H108.595V65.0941H112.915L112.685 65.2837C112.685 64.8143 112.613 64.4171 112.468 64.092C112.333 63.758 112.13 63.5052 111.859 63.3337C111.597 63.1622 111.268 63.0764 110.87 63.0764C110.437 63.0764 110.067 63.1802 109.76 63.3879C109.453 63.5865 109.218 63.8709 109.056 64.241C108.893 64.6021 108.812 65.0219 108.812 65.5004V65.5817C108.812 66.3942 109.006 67.0081 109.394 67.4233C109.782 67.8386 110.342 68.0463 111.073 68.0463C111.362 68.0463 111.656 68.0102 111.954 67.9379C112.261 67.8657 112.554 67.7348 112.834 67.5452C112.969 67.464 113.091 67.4279 113.2 67.4369C113.317 67.4369 113.412 67.473 113.484 67.5452C113.556 67.6084 113.601 67.6897 113.619 67.789C113.637 67.8793 113.624 67.9786 113.579 68.0869C113.534 68.1952 113.448 68.29 113.321 68.3713C113.023 68.5789 112.667 68.7414 112.252 68.8588C111.845 68.9671 111.453 69.0213 111.073 69.0213ZM117.224 68.9942C117.034 68.9942 116.885 68.94 116.777 68.8317C116.669 68.7234 116.615 68.5654 116.615 68.3577V62.8327C116.615 62.625 116.669 62.4715 116.777 62.3722C116.885 62.2639 117.034 62.2097 117.224 62.2097C117.413 62.2097 117.558 62.2639 117.657 62.3722C117.766 62.4715 117.82 62.625 117.82 62.8327V63.9431L117.671 63.74C117.86 63.2254 118.167 62.8372 118.592 62.5754C119.025 62.3135 119.517 62.1826 120.068 62.1826C120.6 62.1826 121.038 62.2774 121.381 62.467C121.724 62.6566 121.982 62.9455 122.153 63.3337C122.325 63.7219 122.41 64.2139 122.41 64.8098V68.3577C122.41 68.5654 122.356 68.7234 122.248 68.8317C122.149 68.94 122 68.9942 121.801 68.9942C121.602 68.9942 121.449 68.94 121.341 68.8317C121.232 68.7234 121.178 68.5654 121.178 68.3577V64.8775C121.178 64.2907 121.065 63.8618 120.84 63.591C120.614 63.3202 120.253 63.1847 119.756 63.1847C119.178 63.1847 118.714 63.3653 118.361 63.7264C118.018 64.0785 117.847 64.557 117.847 65.1619V68.3577C117.847 68.7821 117.639 68.9942 117.224 68.9942ZM128.454 69.0213C127.921 69.0213 127.474 68.9265 127.113 68.7369C126.761 68.5473 126.495 68.272 126.314 67.9109C126.143 67.5497 126.057 67.1074 126.057 66.5838V63.2525H125.19C125.028 63.2525 124.901 63.2118 124.811 63.1306C124.721 63.0403 124.676 62.9229 124.676 62.7785C124.676 62.625 124.721 62.5076 124.811 62.4264C124.901 62.3451 125.028 62.3045 125.19 62.3045H126.057V60.8285C126.057 60.6208 126.111 60.4673 126.219 60.368C126.328 60.2597 126.481 60.2055 126.68 60.2055C126.878 60.2055 127.027 60.2597 127.127 60.368C127.235 60.4673 127.289 60.6208 127.289 60.8285V62.3045H128.928C129.099 62.3045 129.23 62.3451 129.32 62.4264C129.411 62.5076 129.456 62.625 129.456 62.7785C129.456 62.9229 129.411 63.0403 129.32 63.1306C129.23 63.2118 129.099 63.2525 128.928 63.2525H127.289V66.4754C127.289 66.972 127.393 67.3466 127.601 67.5994C127.808 67.8522 128.151 67.9786 128.63 67.9786C128.801 67.9786 128.946 67.965 129.063 67.9379C129.18 67.9018 129.284 67.8838 129.375 67.8838C129.456 67.8747 129.524 67.9018 129.578 67.965C129.641 68.0282 129.672 68.1456 129.672 68.3171C129.672 68.4435 129.65 68.5609 129.605 68.6692C129.569 68.7685 129.492 68.8362 129.375 68.8723C129.266 68.9084 129.122 68.94 128.941 68.9671C128.761 69.0032 128.598 69.0213 128.454 69.0213Z" fill="#006ECE"/>
</svg>
